<svg width="32" height="32" viewBox="0 0 32 32" fill="none" xmlns="http://www.w3.org/2000/svg">
<rect width="32" height="32" fill="url(#paint0_linear_6213_59)"/>
<path d="M15.8524 25.8666C14.7803 25.8666 13.8503 25.7019 13.0626 25.3725C12.275 25.043 11.6732 24.461 11.2575 23.6265C10.8637 22.7919 10.6667 21.6169 10.6667 20.1015V18.9814C11.1919 18.9814 11.7279 18.9814 12.275 18.9814C12.822 18.9814 13.358 18.9814 13.8832 18.9814V20.365C13.8832 21.2874 13.9707 22.0012 14.1457 22.5064C14.3208 23.0115 14.5614 23.3629 14.8678 23.5606C15.1741 23.7363 15.5242 23.8241 15.918 23.8241C16.5526 23.8241 17.0558 23.6155 17.4278 23.1982C17.8216 22.7589 18.0185 21.9463 18.0185 20.7603C18.0185 19.8818 17.8873 19.223 17.6247 18.7837C17.3621 18.3445 16.9464 17.9931 16.3775 17.7295C15.8305 17.444 15.1194 17.1255 14.2442 16.7741C13.5221 16.4447 12.8985 16.0604 12.3734 15.6211C11.8483 15.1819 11.4544 14.6218 11.1919 13.941C10.9293 13.2601 10.798 12.4146 10.798 11.4043C10.798 10.1744 10.9512 9.17511 11.2575 8.40642C11.5857 7.61577 12.1327 7.04475 12.8985 6.69334C13.6644 6.31998 14.6927 6.1333 15.9837 6.1333C17.6466 6.1333 18.9156 6.51764 19.7909 7.28633C20.6661 8.03306 21.1037 9.13119 21.1037 10.5807V12.8538C20.6004 12.8538 20.0862 12.8538 19.5611 12.8538C19.0579 12.8538 18.5437 12.8538 18.0185 12.8538V11.5031C18.0185 10.4929 17.8544 9.7681 17.5262 9.32885C17.2199 8.86763 16.7167 8.63703 16.0165 8.63703C15.2944 8.63703 14.7693 8.85665 14.4411 9.2959C14.1348 9.71319 13.9816 10.383 13.9816 11.3055C13.9816 12.0961 14.1348 12.7111 14.4411 13.1503C14.7474 13.5676 15.1413 13.8971 15.6226 14.1386C16.1259 14.3802 16.6401 14.5999 17.1652 14.7975C18.1498 15.1709 18.9485 15.5552 19.5611 15.9506C20.1738 16.3459 20.6223 16.873 20.9067 17.5319C21.1912 18.1907 21.3334 19.1241 21.3334 20.3321C21.3334 21.7157 21.1037 22.8138 20.6442 23.6265C20.2066 24.4171 19.572 24.9881 18.7406 25.3395C17.931 25.6909 16.9683 25.8666 15.8524 25.8666Z" fill="white"/>
<defs>
<linearGradient id="paint0_linear_6213_59" x1="6.32768" y1="9.62149e-06" x2="33.8513" y2="3.40621" gradientUnits="userSpaceOnUse">
<stop stop-color="#ED0233"/>
<stop offset="1" stop-color="#003EB7"/>
</linearGradient>
</defs>
</svg>
